<?xml version="1.0" encoding="UTF-8"?>
<svg id="Layer_1" data-name="Layer 1" xmlns="http://www.w3.org/2000/svg" viewBox="0 0 51.93 46.31">
  <defs>
    <style>
      .cls-1 {
        fill: #19562e;
      }

      .cls-2 {
        fill: #8bbe76;
      }

      .cls-3 {
        fill: #90c576;
      }

      .cls-4 {
        fill: #91c677;
      }

      .cls-5 {
        fill: #8dc275;
      }

      .cls-6 {
        fill: #8ac071;
      }

      .cls-7 {
        fill: #1b572f;
      }

      .cls-8 {
        fill: #8ec474;
      }

      .cls-9 {
        fill: #88be70;
      }

      .cls-10 {
        fill: #90c575;
      }

      .cls-11 {
        fill: #8dc374;
      }

      .cls-12 {
        fill: #90c676;
      }
    </style>
  </defs>
  <g id="vc59eb.tif">
    <g>
      <path class="cls-12" d="M45.59,38.08h-.09c-2.83.08-5.27-1.7-6.82-3.93-.24-.34-1.1-1.67-1.17-1.98-.23-1,.09-2.81-.02-3.94-.02-.21-.38-1.86-.45-1.94-.22-.23-.24.6-.35.68-.08.05-.49.07-.54.03-.08-.07-.45-1.89-.37-2.15h-.36c.03.27-.38,2.08-.46,2.15-.03.03-.47.03-.52,0-.06-.04-.16-.95-.37-.71.07.5-.45,1.35-.45,1.76v1.94h-15.3v-1.94c0-.28-.46-1.43-.59-1.75-.13.1-.16.66-.24.71-.05.03-.46.03-.52,0-.09-.06-.49-1.88-.46-2.15h-.36c.08.26-.29,2.08-.37,2.15-.05.04-.46.02-.54-.03-.12-.08-.14-.91-.35-.68-.07.07-.43,1.73-.45,1.94-.11,1.14.19,2.8-.02,3.85-.09.44-.88,1.66-1.17,2.07-1.46,2.09-3.8,3.9-6.46,3.93-.15,0-.3,0-.45,0-.01-3.39-.03-6.78.04-10.17L26,10.81l19.54,17.1c.07,3.39.06,6.78.05,10.17Z"/>
      <path class="cls-1" d="M37.13,9.37v-4.64c0-.13.32-.69.45-.81.22-.22.55-.37.86-.4,1.23-.14,4.52-.14,5.76,0,.9.1,1.35.69,1.4,1.57l.02,11.78,5.15,4.57c.29.36.46.8.38,1.25-.09.51-1.22,1.73-1.63,2.16-.9.94-1.43,1.56-2.7.63L27.32,8.24c-1.19-.95-1.52-.94-2.7,0-6.33,5.41-12.36,11.2-18.72,16.56-.77.65-1.58,1.61-2.66.85-.37-.26-1.9-1.95-2.15-2.35-.79-1.21.02-1.79.85-2.56C8.9,14.27,16.39,8.32,23.36,1.85c1.39-1.22,3.01-1.49,4.62-.48l9.15,8Z"/>
      <path class="cls-7" d="M6.8,38.08c2.66-.04,5-1.84,6.46-3.93.29-.41,1.08-1.64,1.17-2.07.21-1.05-.09-2.71.02-3.85.02-.21.38-1.86.45-1.94.22-.23.24.6.35.68.08.05.49.07.54.03.08-.07.45-1.89.37-2.15h.36c-.03.27.37,2.09.46,2.15.05.03.46.03.52,0,.08-.05.11-.6.24-.71.13.33.59,1.47.59,1.75v1.94h15.3v-1.94c0-.41.52-1.26.45-1.76.21-.24.31.67.37.71.05.03.49.03.52,0,.08-.07.49-1.88.46-2.15h.36c-.08.26.29,2.08.37,2.15.05.04.46.02.54-.03.12-.08.14-.91.35-.68.07.07.43,1.73.45,1.94.11,1.13-.21,2.94.02,3.94.07.32.93,1.64,1.17,1.98,1.56,2.23,3.99,4.02,6.82,3.93v.81c-1.04-.08-2-.28-2.97-.63v1.71h2.97s-.03.7,0,.81h-6.84l-.09.09v4.5c-1.46.3-4.33.11-5.94.09-.03,0-.06,0-.09,0v-3.32c-.9-.25-1.81-.43-2.7-.64s-3.16-.92-3.91-.9c-.85.02-2.88.67-3.83.9-.89.22-1.8.4-2.69.64v3.32s-.07,0-.1,0c-1.5.02-4.65.22-5.94-.09v-4.59s-6.84,0-6.84,0c-.19-.18-.06-.56-.09-.81h2.97v-1.71c-.97.37-1.94.52-2.97.63.03-.48-.2-.71.36-.81ZM29.84,39.43c1.32,0,2.64,0,3.96,0-.12-1.94.16-4.07,0-5.99-.04-.54-.31-1.07-.18-1.66h-15.3c.12.59-.15,1.12-.18,1.66-.13,1.95.1,4.03,0,5.99,1.32,0,2.64,0,3.96,0,2.58,0,5.16,0,7.74,0ZM14.63,39.97v-6.66l-1.53,2.12v4.55h1.53ZM38.75,39.97v-4.73l-1.44-1.94v6.66h1.44ZM41.9,37.9c-.6-.27-1.21-.7-1.71-1.12-.26-.21-.47-.61-.81-.68v3.87h2.52v-2.07ZM12.47,39.97v-3.78c-.81.56-1.48,1.37-2.43,1.71v2.07h2.43ZM21.74,40.42h-2.07l.05.63,2.02-.63ZM32.27,40.42h-2.16l2.02.63c.27.03.09-.47.14-.63Z"/>
      <path class="cls-3" d="M6.53,40.78h6.84s0,4.59,0,4.59c-.04,0-.11.03-.09.09-1.73-.02-4.08.2-5.72,0-.39-.05-.77-.32-.96-.66-.43-.76-.24-2.96-.25-3.93l.18-.09Z"/>
      <path class="cls-12" d="M45.5,40.78h.09c0,1,.09,2.21-.01,3.18-.07.66-.46,1.41-1.2,1.5-1.64.2-3.98-.02-5.72,0,.02-.06-.05-.1-.09-.09v-4.5l.09-.09h6.84Z"/>
      <path class="cls-10" d="M22.1,41.5c-.13.9.27,2.7-.23,3.41-.55.78-1.61.53-2.47.55v-3.32c.9-.25,1.81-.43,2.7-.64Z"/>
      <path class="cls-10" d="M29.84,41.5c.89.22,1.8.4,2.69.64v3.32c-.84-.01-1.91.24-2.46-.55-.51-.72-.1-2.52-.23-3.41Z"/>
      <path class="cls-5" d="M6.8,38.08c-.56.1-.33.33-.36.81,1.03-.11,2-.26,2.97-.63v1.71h-2.97c.03.25-.1.63.09.81l-.18.09c0-.93,0-1.86,0-2.79.15,0,.3,0,.45,0Z"/>
      <path class="cls-4" d="M45.59,40.78h-.09c-.03-.11.04-.81,0-.81h-2.97v-1.71c.97.35,1.93.55,2.97.63v-.81h.09c0,.9,0,1.8,0,2.7Z"/>
      <path class="cls-5" d="M19.31,45.46c-.09.15-.34.09-.49.09-1.85.02-3.71-.07-5.54-.09-.02-.06.05-.1.09-.09,1.29.31,4.44.11,5.94.09Z"/>
      <path class="cls-2" d="M38.66,45.46c-1.83.02-3.69.11-5.54.09-.15,0-.4.06-.49-.09,1.61.02,4.48.21,5.94-.09.04,0,.11.03.09.09Z"/>
      <path class="cls-10" d="M22.1,39.43c-1.32,0-2.64,0-3.96,0,.1-1.96-.13-4.04,0-5.99.04-.54.3-1.08.18-1.66h15.3c-.13.6.14,1.13.18,1.66.16,1.92-.13,4.05,0,5.99-1.32,0-2.64,0-3.96,0-.02-1.54.44-4.34-1.75-4.59-.99-.11-3.04-.08-4.05,0-2.41.18-1.9,2.88-1.93,4.59Z"/>
      <polygon class="cls-11" points="14.63 39.97 13.1 39.97 13.1 35.42 14.63 33.31 14.63 39.97"/>
      <polygon class="cls-8" points="38.75 39.97 37.31 39.97 37.31 33.31 38.75 35.24 38.75 39.97"/>
      <path class="cls-11" d="M41.9,37.9v2.07h-2.52v-3.87c.34.07.55.46.81.68.51.42,1.11.86,1.71,1.12Z"/>
      <path class="cls-10" d="M12.47,39.97h-2.43v-2.07c.95-.34,1.62-1.15,2.43-1.71v3.78Z"/>
      <path class="cls-9" d="M32.27,40.42c-.05.17.13.66-.14.63l-2.02-.63h2.16Z"/>
      <polygon class="cls-6" points="21.74 40.42 19.72 41.05 19.67 40.42 21.74 40.42"/>
      <path class="cls-2" d="M38.57,40.87l.09-.09-.09.09Z"/>
    </g>
  </g>
</svg>